<mxfile host="app.diagrams.net" modified="2023-11-14T13:41:14.093Z" agent="Mozilla/5.0 (Windows NT 10.0; Win64; x64) AppleWebKit/537.36 (KHTML, like Gecko) Chrome/116.0.5845.837 YaBrowser/23.9.4.837 Yowser/2.5 Safari/537.36" etag="PETHGfvH_Wsf-XQ_cfmS" version="22.1.0" type="device">
  <diagram name="Страница — 1" id="TZU6EUEwsH4vMVt9lSh5">
    <mxGraphModel dx="1002" dy="567" grid="1" gridSize="10" guides="1" tooltips="1" connect="1" arrows="1" fold="1" page="1" pageScale="1" pageWidth="827" pageHeight="1169" math="0" shadow="0">
      <root>
        <mxCell id="0" />
        <mxCell id="1" parent="0" />
        <mxCell id="0xD-w3GIyxCIkqOejGLE-9" value="" style="edgeStyle=orthogonalEdgeStyle;rounded=0;orthogonalLoop=1;jettySize=auto;html=1;" edge="1" parent="1" source="0xD-w3GIyxCIkqOejGLE-6" target="0xD-w3GIyxCIkqOejGLE-8">
          <mxGeometry relative="1" as="geometry" />
        </mxCell>
        <mxCell id="0xD-w3GIyxCIkqOejGLE-6" value="" style="ellipse;html=1;shape=startState;fillColor=#000000;strokeColor=#ff0000;" vertex="1" parent="1">
          <mxGeometry x="350" y="30" width="30" height="30" as="geometry" />
        </mxCell>
        <mxCell id="0xD-w3GIyxCIkqOejGLE-7" value="" style="edgeStyle=orthogonalEdgeStyle;html=1;verticalAlign=bottom;endArrow=open;endSize=8;strokeColor=#ff0000;rounded=0;" edge="1" source="0xD-w3GIyxCIkqOejGLE-6" parent="1">
          <mxGeometry relative="1" as="geometry">
            <mxPoint x="365" y="120" as="targetPoint" />
          </mxGeometry>
        </mxCell>
        <mxCell id="0xD-w3GIyxCIkqOejGLE-11" value="" style="edgeStyle=orthogonalEdgeStyle;rounded=0;orthogonalLoop=1;jettySize=auto;html=1;" edge="1" parent="1" source="0xD-w3GIyxCIkqOejGLE-8" target="0xD-w3GIyxCIkqOejGLE-10">
          <mxGeometry relative="1" as="geometry" />
        </mxCell>
        <mxCell id="0xD-w3GIyxCIkqOejGLE-8" value="Звонок клиента в компанию" style="whiteSpace=wrap;html=1;" vertex="1" parent="1">
          <mxGeometry x="305" y="90" width="120" height="60" as="geometry" />
        </mxCell>
        <mxCell id="0xD-w3GIyxCIkqOejGLE-13" value="" style="edgeStyle=orthogonalEdgeStyle;rounded=0;orthogonalLoop=1;jettySize=auto;html=1;" edge="1" parent="1" source="0xD-w3GIyxCIkqOejGLE-10" target="0xD-w3GIyxCIkqOejGLE-12">
          <mxGeometry relative="1" as="geometry" />
        </mxCell>
        <mxCell id="0xD-w3GIyxCIkqOejGLE-10" value="Соединение со свободным оператором" style="whiteSpace=wrap;html=1;" vertex="1" parent="1">
          <mxGeometry x="305" y="180" width="120" height="60" as="geometry" />
        </mxCell>
        <mxCell id="0xD-w3GIyxCIkqOejGLE-12" value="" style="rhombus;whiteSpace=wrap;html=1;" vertex="1" parent="1">
          <mxGeometry x="340" y="270" width="50" height="50" as="geometry" />
        </mxCell>
        <mxCell id="0xD-w3GIyxCIkqOejGLE-25" value="" style="edgeStyle=orthogonalEdgeStyle;rounded=0;orthogonalLoop=1;jettySize=auto;html=1;" edge="1" parent="1" source="0xD-w3GIyxCIkqOejGLE-20" target="0xD-w3GIyxCIkqOejGLE-24">
          <mxGeometry relative="1" as="geometry" />
        </mxCell>
        <mxCell id="0xD-w3GIyxCIkqOejGLE-20" value="Информация о ценах и услугах" style="whiteSpace=wrap;html=1;" vertex="1" parent="1">
          <mxGeometry x="152.5" y="360" width="120" height="60" as="geometry" />
        </mxCell>
        <mxCell id="0xD-w3GIyxCIkqOejGLE-24" value="" style="rhombus;whiteSpace=wrap;html=1;" vertex="1" parent="1">
          <mxGeometry x="187.5" y="440" width="50" height="50" as="geometry" />
        </mxCell>
        <mxCell id="0xD-w3GIyxCIkqOejGLE-30" value="[Первый клиент]" style="html=1;verticalAlign=bottom;endArrow=block;curved=0;rounded=0;entryX=0.5;entryY=0;entryDx=0;entryDy=0;" edge="1" parent="1" target="0xD-w3GIyxCIkqOejGLE-20">
          <mxGeometry x="-0.3376" y="-6" width="80" relative="1" as="geometry">
            <mxPoint x="340" y="295.5" as="sourcePoint" />
            <mxPoint x="210" y="296" as="targetPoint" />
            <Array as="points">
              <mxPoint x="280" y="296" />
              <mxPoint x="213" y="296" />
            </Array>
            <mxPoint as="offset" />
          </mxGeometry>
        </mxCell>
        <mxCell id="0xD-w3GIyxCIkqOejGLE-32" value="[Постоянный клиент]" style="html=1;verticalAlign=bottom;endArrow=block;curved=0;rounded=0;" edge="1" parent="1" source="0xD-w3GIyxCIkqOejGLE-12">
          <mxGeometry x="-0.3654" y="5" width="80" relative="1" as="geometry">
            <mxPoint x="390" y="295" as="sourcePoint" />
            <mxPoint x="510" y="360" as="targetPoint" />
            <Array as="points">
              <mxPoint x="510" y="295" />
            </Array>
            <mxPoint as="offset" />
          </mxGeometry>
        </mxCell>
        <mxCell id="0xD-w3GIyxCIkqOejGLE-43" value="" style="line;strokeWidth=4;html=1;perimeter=backbonePerimeter;points=[];outlineConnect=0;" vertex="1" parent="1">
          <mxGeometry x="460" y="360" width="100" height="10" as="geometry" />
        </mxCell>
        <mxCell id="0xD-w3GIyxCIkqOejGLE-51" value="Поиск клиента в CRM" style="html=1;whiteSpace=wrap;" vertex="1" parent="1">
          <mxGeometry x="373.5" y="400" width="80" height="40" as="geometry" />
        </mxCell>
        <mxCell id="0xD-w3GIyxCIkqOejGLE-53" value="Прием заявки" style="html=1;whiteSpace=wrap;" vertex="1" parent="1">
          <mxGeometry x="580" y="400" width="70" height="40" as="geometry" />
        </mxCell>
        <mxCell id="0xD-w3GIyxCIkqOejGLE-75" style="edgeStyle=orthogonalEdgeStyle;rounded=0;orthogonalLoop=1;jettySize=auto;html=1;entryX=1;entryY=0.5;entryDx=0;entryDy=0;" edge="1" parent="1" source="0xD-w3GIyxCIkqOejGLE-55" target="0xD-w3GIyxCIkqOejGLE-73">
          <mxGeometry relative="1" as="geometry">
            <Array as="points">
              <mxPoint x="510" y="610" />
            </Array>
          </mxGeometry>
        </mxCell>
        <mxCell id="0xD-w3GIyxCIkqOejGLE-55" value="" style="line;strokeWidth=4;html=1;perimeter=backbonePerimeter;points=[];outlineConnect=0;" vertex="1" parent="1">
          <mxGeometry x="470" y="480" width="100" height="10" as="geometry" />
        </mxCell>
        <mxCell id="0xD-w3GIyxCIkqOejGLE-58" value="" style="endArrow=open;endFill=1;endSize=12;html=1;rounded=0;entryX=0.25;entryY=0;entryDx=0;entryDy=0;" edge="1" parent="1" source="0xD-w3GIyxCIkqOejGLE-43" target="0xD-w3GIyxCIkqOejGLE-53">
          <mxGeometry width="160" relative="1" as="geometry">
            <mxPoint x="440" y="430" as="sourcePoint" />
            <mxPoint x="600" y="430" as="targetPoint" />
          </mxGeometry>
        </mxCell>
        <mxCell id="0xD-w3GIyxCIkqOejGLE-59" value="" style="endArrow=open;endFill=1;endSize=12;html=1;rounded=0;entryX=0.5;entryY=0;entryDx=0;entryDy=0;" edge="1" parent="1" source="0xD-w3GIyxCIkqOejGLE-43" target="0xD-w3GIyxCIkqOejGLE-51">
          <mxGeometry width="160" relative="1" as="geometry">
            <mxPoint x="370" y="570" as="sourcePoint" />
            <mxPoint x="530" y="570" as="targetPoint" />
          </mxGeometry>
        </mxCell>
        <mxCell id="0xD-w3GIyxCIkqOejGLE-60" value="" style="endArrow=open;endFill=1;endSize=12;html=1;rounded=0;exitX=0.666;exitY=1.05;exitDx=0;exitDy=0;exitPerimeter=0;" edge="1" parent="1" source="0xD-w3GIyxCIkqOejGLE-51" target="0xD-w3GIyxCIkqOejGLE-55">
          <mxGeometry width="160" relative="1" as="geometry">
            <mxPoint x="380" y="510" as="sourcePoint" />
            <mxPoint x="540" y="510" as="targetPoint" />
          </mxGeometry>
        </mxCell>
        <mxCell id="0xD-w3GIyxCIkqOejGLE-61" value="" style="endArrow=open;endFill=1;endSize=12;html=1;rounded=0;exitX=0.5;exitY=1;exitDx=0;exitDy=0;" edge="1" parent="1" source="0xD-w3GIyxCIkqOejGLE-53" target="0xD-w3GIyxCIkqOejGLE-55">
          <mxGeometry width="160" relative="1" as="geometry">
            <mxPoint x="560" y="590" as="sourcePoint" />
            <mxPoint x="720" y="590" as="targetPoint" />
          </mxGeometry>
        </mxCell>
        <mxCell id="0xD-w3GIyxCIkqOejGLE-62" value="" style="endArrow=none;dashed=1;html=1;dashPattern=1 3;strokeWidth=2;rounded=0;exitX=0.914;exitY=0.264;exitDx=0;exitDy=0;exitPerimeter=0;" edge="1" parent="1" source="0xD-w3GIyxCIkqOejGLE-24">
          <mxGeometry width="50" height="50" relative="1" as="geometry">
            <mxPoint x="500" y="450" as="sourcePoint" />
            <mxPoint x="310" y="400" as="targetPoint" />
            <Array as="points">
              <mxPoint x="260" y="440" />
            </Array>
          </mxGeometry>
        </mxCell>
        <mxCell id="0xD-w3GIyxCIkqOejGLE-64" value="Интересно ли клиенту" style="text;align=center;fontStyle=1;verticalAlign=middle;spacingLeft=3;spacingRight=3;strokeColor=none;rotatable=0;points=[[0,0.5],[1,0.5]];portConstraint=eastwest;html=1;" vertex="1" parent="1">
          <mxGeometry x="305" y="370" width="80" height="26" as="geometry" />
        </mxCell>
        <mxCell id="0xD-w3GIyxCIkqOejGLE-65" value="Да" style="html=1;verticalAlign=bottom;endArrow=block;curved=0;rounded=0;entryX=0.5;entryY=0;entryDx=0;entryDy=0;" edge="1" parent="1" target="0xD-w3GIyxCIkqOejGLE-66">
          <mxGeometry x="-0.0306" y="5" width="80" relative="1" as="geometry">
            <mxPoint x="237.5" y="464.5" as="sourcePoint" />
            <mxPoint x="317.5" y="464.5" as="targetPoint" />
            <Array as="points">
              <mxPoint x="290" y="465" />
            </Array>
            <mxPoint as="offset" />
          </mxGeometry>
        </mxCell>
        <mxCell id="0xD-w3GIyxCIkqOejGLE-72" style="edgeStyle=orthogonalEdgeStyle;rounded=0;orthogonalLoop=1;jettySize=auto;html=1;entryX=0.5;entryY=0;entryDx=0;entryDy=0;" edge="1" parent="1" source="0xD-w3GIyxCIkqOejGLE-66" target="0xD-w3GIyxCIkqOejGLE-71">
          <mxGeometry relative="1" as="geometry" />
        </mxCell>
        <mxCell id="0xD-w3GIyxCIkqOejGLE-66" value="Регистрация" style="html=1;whiteSpace=wrap;" vertex="1" parent="1">
          <mxGeometry x="237.5" y="500" width="110" height="50" as="geometry" />
        </mxCell>
        <mxCell id="0xD-w3GIyxCIkqOejGLE-67" style="edgeStyle=orthogonalEdgeStyle;rounded=0;orthogonalLoop=1;jettySize=auto;html=1;exitX=0.5;exitY=1;exitDx=0;exitDy=0;" edge="1" parent="1" source="0xD-w3GIyxCIkqOejGLE-66" target="0xD-w3GIyxCIkqOejGLE-66">
          <mxGeometry relative="1" as="geometry" />
        </mxCell>
        <mxCell id="0xD-w3GIyxCIkqOejGLE-69" value="Нет" style="html=1;verticalAlign=bottom;endArrow=block;curved=0;rounded=0;entryX=0.371;entryY=-0.126;entryDx=0;entryDy=0;entryPerimeter=0;" edge="1" parent="1" target="0xD-w3GIyxCIkqOejGLE-70">
          <mxGeometry width="80" relative="1" as="geometry">
            <mxPoint x="187.5" y="464.74" as="sourcePoint" />
            <mxPoint x="107.5" y="464.74" as="targetPoint" />
            <Array as="points">
              <mxPoint x="90" y="465" />
            </Array>
          </mxGeometry>
        </mxCell>
        <mxCell id="0xD-w3GIyxCIkqOejGLE-70" value="" style="ellipse;html=1;shape=endState;fillColor=#000000;strokeColor=#ff0000;" vertex="1" parent="1">
          <mxGeometry x="80" y="510" width="30" height="30" as="geometry" />
        </mxCell>
        <mxCell id="0xD-w3GIyxCIkqOejGLE-74" value="" style="edgeStyle=orthogonalEdgeStyle;rounded=0;orthogonalLoop=1;jettySize=auto;html=1;" edge="1" parent="1" source="0xD-w3GIyxCIkqOejGLE-71" target="0xD-w3GIyxCIkqOejGLE-73">
          <mxGeometry relative="1" as="geometry" />
        </mxCell>
        <mxCell id="0xD-w3GIyxCIkqOejGLE-71" value="Прием заявки" style="html=1;whiteSpace=wrap;" vertex="1" parent="1">
          <mxGeometry x="237.5" y="585" width="110" height="50" as="geometry" />
        </mxCell>
        <mxCell id="0xD-w3GIyxCIkqOejGLE-77" style="edgeStyle=orthogonalEdgeStyle;rounded=0;orthogonalLoop=1;jettySize=auto;html=1;exitX=0.5;exitY=1;exitDx=0;exitDy=0;entryX=0.5;entryY=0;entryDx=0;entryDy=0;" edge="1" parent="1" source="0xD-w3GIyxCIkqOejGLE-73" target="0xD-w3GIyxCIkqOejGLE-76">
          <mxGeometry relative="1" as="geometry" />
        </mxCell>
        <mxCell id="0xD-w3GIyxCIkqOejGLE-73" value="" style="rhombus;whiteSpace=wrap;html=1;" vertex="1" parent="1">
          <mxGeometry x="403.5" y="585" width="50" height="50" as="geometry" />
        </mxCell>
        <mxCell id="0xD-w3GIyxCIkqOejGLE-76" value="" style="ellipse;html=1;shape=endState;fillColor=#000000;strokeColor=#ff0000;" vertex="1" parent="1">
          <mxGeometry x="414" y="670" width="30" height="30" as="geometry" />
        </mxCell>
      </root>
    </mxGraphModel>
  </diagram>
</mxfile>
